<svg xmlns="http://www.w3.org/2000/svg" width="30.94" height="29.186" viewBox="0 0 30.94 29.186">
  <defs>
    <style>
      .cls-1 {
        fill: none;
        stroke: #fff;
        stroke-linecap: round;
        stroke-linejoin: round;
        stroke-width: 2px;
      }

      .cls-2 {
        fill: #fff;
        font-size: 14px;
        font-family: Comfortaa-SemiBold, Comfortaa;
        font-weight: 600;
      }
    </style>
  </defs>
  <g id="addtocart" transform="translate(1 1)">
    <path id="Path_1" data-name="Path 1" class="cls-1" d="M14.631,31.295A1.316,1.316,0,1,1,13.315,30,1.305,1.305,0,0,1,14.631,31.295Z" transform="translate(-2.792 -5.403)"/>
    <path id="Path_2" data-name="Path 2" class="cls-1" d="M31.131,31.295A1.316,1.316,0,1,1,29.815,30,1.305,1.305,0,0,1,31.131,31.295Z" transform="translate(-4.822 -5.403)"/>
    <path id="Path_3" data-name="Path 3" class="cls-1" d="M1.5,1.5H6.762l3.525,17.334a2.622,2.622,0,0,0,2.631,2.084H25.7a2.622,2.622,0,0,0,2.631-2.084l2.1-10.862H8.077" transform="translate(-1.5 -1.5)"/>
    <text id="_" data-name="+" class="cls-2" transform="translate(13.474 16.832)"><tspan x="0" y="0">+</tspan></text>
  </g>
</svg>
