<svg id="control" xmlns="http://www.w3.org/2000/svg" width="60" height="60.003" viewBox="0 0 60 60.003">
  <defs>
    <style>
      .cls-1 {
        fill: #008736;
      }
    </style>
  </defs>
  <path id="Path_78" data-name="Path 78" class="cls-1" d="M12.645,42.908a1.262,1.262,0,0,1-.885-.365,1.249,1.249,0,0,1-.343-1.128l1.768-8.838a1.225,1.225,0,0,1,.343-.64L32.974,12.491a3.757,3.757,0,0,1,5.3,0l3.535,3.535a3.753,3.753,0,0,1,0,5.3L22.366,40.775a1.243,1.243,0,0,1-.64.343l-8.838,1.768A1.326,1.326,0,0,1,12.645,42.908Zm2.92-9.473L14.24,40.062l6.628-1.325L40.047,19.559a1.251,1.251,0,0,0,0-1.768l-3.535-3.535a1.251,1.251,0,0,0-1.768,0Zm5.918,6.455h.025Z" transform="translate(17.091 17.095)"/>
  <path id="Path_79" data-name="Path 79" d="M23.751,48H6.25A6.256,6.256,0,0,1,0,41.752V9.25A6.256,6.256,0,0,1,6.25,3h5a1.25,1.25,0,1,1,0,2.5h-5A3.755,3.755,0,0,0,2.5,9.25v32.5A3.755,3.755,0,0,0,6.25,45.5h17.5a1.25,1.25,0,1,1,0,2.5Z" transform="translate(0 4.5)"/>
  <path id="Path_80" data-name="Path 80" d="M23.251,25.5A1.251,1.251,0,0,1,22,24.251v-15A3.755,3.755,0,0,0,18.25,5.5h-5a1.25,1.25,0,1,1,0-2.5h5A6.256,6.256,0,0,1,24.5,9.25v15A1.251,1.251,0,0,1,23.251,25.5Z" transform="translate(18.002 4.5)"/>
  <path id="Path_81" data-name="Path 81" d="M22.751,15h-15A3.755,3.755,0,0,1,4,11.251v-5A1.251,1.251,0,0,1,5.25,5H9.125A6.252,6.252,0,0,1,21.376,5h3.875A1.251,1.251,0,0,1,26.5,6.25v5A3.755,3.755,0,0,1,22.751,15ZM6.5,7.5v3.75A1.254,1.254,0,0,0,7.75,12.5h15A1.254,1.254,0,0,0,24,11.251V7.5h-3.75A1.251,1.251,0,0,1,19,6.25a3.75,3.75,0,1,0-7.5,0A1.251,1.251,0,0,1,10.25,7.5Z" transform="translate(6.001)"/>
  <path id="Path_82" data-name="Path 82" d="M29.251,10.5h-25a1.25,1.25,0,1,1,0-2.5h25a1.25,1.25,0,0,1,0,2.5Z" transform="translate(4.5 12.001)"/>
  <path id="Path_83" data-name="Path 83" d="M29.251,13.5h-25a1.25,1.25,0,1,1,0-2.5h25a1.25,1.25,0,1,1,0,2.5Z" transform="translate(4.5 16.501)"/>
  <path id="Path_84" data-name="Path 84" d="M29.251,16.5h-25a1.25,1.25,0,1,1,0-2.5h25a1.25,1.25,0,1,1,0,2.5Z" transform="translate(4.5 21.002)"/>
</svg>
