<svg xmlns="http://www.w3.org/2000/svg" width="64" height="64" viewBox="0 0 64 64">
  <defs>
    <style>
      .cls-1 {
        fill: #2a2a2a;
      }

      .cls-2 {
        fill: #008736;
      }
    </style>
  </defs>
  <g id="pay1" transform="translate(0)">
    <g id="_001---Money-In" data-name="001---Money-In" transform="translate(0)">
      <path id="Shape" class="cls-1" d="M15.668,33.533a4.267,4.267,0,1,0-3.2-7.059,4.267,4.267,0,1,0,0,5.585,4.24,4.24,0,0,0,3.2,1.474Zm0-6.4a2.133,2.133,0,1,1-2.133,2.133A2.133,2.133,0,0,1,15.668,27.133ZM9.268,31.4A2.133,2.133,0,1,1,11.4,29.267,2.133,2.133,0,0,1,9.268,31.4Z" transform="translate(0.332 1.667)"/>
      <path id="Shape-2" data-name="Shape" class="cls-1" d="M51.2,16.535A12.76,12.76,0,0,0,41.687,20.8H37.84a9.6,9.6,0,1,0-18.08,0H5.333A5.34,5.34,0,0,0,0,26.135v32a5.34,5.34,0,0,0,5.333,5.333H54.4a5.34,5.34,0,0,0,5.333-5.333V38.849A12.782,12.782,0,0,0,51.2,16.535Zm-22.4-6.4A7.467,7.467,0,1,1,21.333,17.6,7.467,7.467,0,0,1,28.8,10.135Zm25.6,51.2H5.333a3.2,3.2,0,0,1-3.2-3.2V57.069H57.6v1.067A3.2,3.2,0,0,1,54.4,61.335Zm3.2-13.867H17.067a1.067,1.067,0,1,0,0,2.133H57.6v5.333H2.133V49.6h6.4a1.067,1.067,0,0,0,0-2.133h-6.4V26.135a3.2,3.2,0,0,1,3.2-3.2h15.49a9.589,9.589,0,0,0,15.953,0h3.356A12.777,12.777,0,0,0,57.6,40.4ZM51.2,40A10.667,10.667,0,1,1,61.867,29.335,10.667,10.667,0,0,1,51.2,40Z" transform="translate(0 0.531)"/>
      <path id="Shape-3" data-name="Shape" class="cls-1" d="M43.067,15.533a1.067,1.067,0,0,0,1.067-1.067v-6.4a1.067,1.067,0,0,0-2.133,0v6.4A1.067,1.067,0,0,0,43.067,15.533Z" transform="translate(2.8 0.467)"/>
      <path id="Shape-4" data-name="Shape" class="cls-1" d="M43.067,5.267A1.067,1.067,0,0,0,44.133,4.2V2.067a1.067,1.067,0,0,0-2.133,0V4.2A1.067,1.067,0,0,0,43.067,5.267Z" transform="translate(2.8 0.067)"/>
      <path id="Shape-5" data-name="Shape" class="cls-1" d="M49.067,14.933a1.067,1.067,0,0,0,1.067-1.067V1.067a1.067,1.067,0,0,0-2.133,0v12.8A1.067,1.067,0,0,0,49.067,14.933Z" transform="translate(3.2)"/>
      <path id="Shape-6" data-name="Shape" class="cls-1" d="M54.067,15.267A1.067,1.067,0,0,0,55.133,14.2V12.067a1.067,1.067,0,1,0-2.133,0V14.2A1.067,1.067,0,0,0,54.067,15.267Z" transform="translate(3.533 0.733)"/>
      <path id="Shape-7" data-name="Shape" class="cls-1" d="M54.067,9.2a1.067,1.067,0,0,0,1.067-1.067V7.067a1.067,1.067,0,1,0-2.133,0V8.133A1.067,1.067,0,0,0,54.067,9.2Z" transform="translate(3.533 0.4)"/>
      <path id="Shape-8" data-name="Shape" class="cls-1" d="M21.067,4.267A1.067,1.067,0,0,0,22.133,3.2V1.067a1.067,1.067,0,0,0-2.133,0V3.2A1.067,1.067,0,0,0,21.067,4.267Z" transform="translate(1.333)"/>
      <path id="Shape-9" data-name="Shape" class="cls-1" d="M21.067,8.2a1.067,1.067,0,0,0,1.067-1.067V6.067a1.067,1.067,0,0,0-2.133,0V7.133A1.067,1.067,0,0,0,21.067,8.2Z" transform="translate(1.333 0.333)"/>
      <path id="Shape-10" data-name="Shape" class="cls-1" d="M27.067,6.4a1.067,1.067,0,0,0,1.067-1.067V1.067a1.067,1.067,0,0,0-2.133,0V5.333A1.067,1.067,0,0,0,27.067,6.4Z" transform="translate(1.733)"/>
      <path id="Shape-11" data-name="Shape" class="cls-1" d="M32.067,8.267A1.067,1.067,0,0,0,33.133,7.2V5.067a1.067,1.067,0,1,0-2.133,0V7.2A1.067,1.067,0,0,0,32.067,8.267Z" transform="translate(2.067 0.267)"/>
      <path id="Shape-12" data-name="Shape" class="cls-1" d="M9.2,39H7.067a1.067,1.067,0,0,0,0,2.133H9.2A1.067,1.067,0,0,0,9.2,39Z" transform="translate(0.4 2.6)"/>
      <path id="Shape-13" data-name="Shape" class="cls-1" d="M21.6,39H13.067a1.067,1.067,0,0,0,0,2.133H21.6A1.067,1.067,0,1,0,21.6,39Z" transform="translate(0.8 2.6)"/>
      <path id="Shape-14" data-name="Shape" class="cls-2" d="M47.254,23.534a1.041,1.041,0,0,0,2.027,0A2.124,2.124,0,0,1,50.4,25.4a1.067,1.067,0,0,0,2.133,0,4.267,4.267,0,0,0-3.2-4.115V20.067a1.067,1.067,0,0,0-2.133,0v1.218a4.258,4.258,0,0,0,1.067,8.382,2.126,2.126,0,0,1,1.012,4,1.041,1.041,0,0,0-2.027,0A2.124,2.124,0,0,1,46.133,31.8,1.067,1.067,0,1,0,44,31.8a4.267,4.267,0,0,0,3.2,4.115v1.218a1.067,1.067,0,1,0,2.133,0V35.915a4.258,4.258,0,0,0-1.067-8.382,2.126,2.126,0,0,1-1.012-4Z" transform="translate(2.933 1.267)"/>
      <path id="Shape-15" data-name="Shape" class="cls-2" d="M27.2,18.467a1.067,1.067,0,1,1-.96,1.542,1.068,1.068,0,0,0-1.907.96,3.185,3.185,0,0,0,1.8,1.575v.189a1.067,1.067,0,1,0,2.133,0v-.2a3.193,3.193,0,0,0-1.067-6.2,1.067,1.067,0,1,1,.96-1.542,1.068,1.068,0,1,0,1.907-.96,3.185,3.185,0,0,0-1.8-1.575v-.189a1.067,1.067,0,0,0-2.133,0v.2a3.193,3.193,0,0,0,1.067,6.2Z" transform="translate(1.6 0.733)"/>
    </g>
  </g>
</svg>
