<?xml version="1.0" encoding="utf-8"?>
<!-- Generator: Adobe Illustrator 24.0.0, SVG Export Plug-In . SVG Version: 6.00 Build 0)  -->
<svg version="1.1" id="Слой_1" xmlns="http://www.w3.org/2000/svg" xmlns:xlink="http://www.w3.org/1999/xlink" x="0px" y="0px"
	 viewBox="0 0 60 135" style="enable-background:new 0 0 60 135;" xml:space="preserve">
<style type="text/css">
	.st0{enable-background:new    ;}
	.st1{fill:none;stroke:#008736;stroke-width:2;}
</style>
<g class="st0">
	<path class="st1" d="M14.2,79.6c0-2.3,0.2-4.4,0.7-6.4c0.4-2,1.3-3.9,2.6-5.6c1.3-1.8,3.2-3.4,5.8-4.8c1-0.6,2.3-1.3,3.9-2
		c1.6-0.8,3.2-1.7,4.8-2.8c1.6-1.1,2.9-2.4,4-3.9c1.1-1.5,1.6-3.1,1.6-4.9c0-1.6-0.4-3-1.3-4.2s-1.9-2-3.2-2.7
		c-1.3-0.6-2.7-0.9-4.3-0.9c-1.9,0-3.6,0.4-5.1,1.3c-1.5,0.9-2.7,2-3.6,3.2c-1,1.2-1.8,2.4-2.6,3.5L5.8,41.4
		c1.3-3.1,3.1-5.7,5.4-7.8c2.4-2.1,5.1-3.8,8.2-4.9c3.1-1.2,6.4-1.7,9.9-1.7c2.8,0,5.6,0.4,8.4,1.2c2.8,0.8,5.4,2.1,7.7,3.9
		c2.3,1.8,4.2,4.1,5.5,6.9c1.4,2.9,2.1,6.2,2.1,10.2c0,2.1-0.2,4.1-0.6,5.8c-0.4,1.7-1.1,3.3-2,4.8c-0.9,1.4-2,2.8-3.4,4
		c-1.3,1.2-2.8,2.4-4.5,3.5c-2.1,1.3-4.2,2.5-6.3,3.6c-2.1,1.1-3.8,2.3-5.3,3.6c-1.4,1.3-2.1,3-2.1,5.1H14.2z M14.5,107V90.2h14.7
		V107H14.5z"/>
</g>
</svg>
