<svg id="rent" xmlns="http://www.w3.org/2000/svg" width="64" height="64" viewBox="0 0 64 64">
  <defs>
    <style>
      .cls-1 {
        fill: #2a2a2a;
      }

      .cls-2 {
        fill: #008736;
      }
    </style>
  </defs>
  <g id="_034---Give-Rental-Car" data-name="034---Give-Rental-Car" transform="translate(0 0)">
    <path id="Shape" class="cls-1" d="M60.8,27.259V21.733a3.2,3.2,0,0,0-3.2-3.2H56.128l-3.381-6.763A3.2,3.2,0,0,0,49.877,10H33.323a3.2,3.2,0,0,0-2.869,1.771l-3.381,6.763H21.333a3.2,3.2,0,0,0-3.2,3.2v5.525A3.195,3.195,0,0,0,19.2,33.467h3.424a5.867,5.867,0,0,0,11.285,0H46.091a5.867,5.867,0,0,0,11.285,0h2.357A3.195,3.195,0,0,0,60.8,27.259Zm-2.133-5.525v5.333H55.093a5.824,5.824,0,0,0-6.72,0H42.667v-3.2a1.067,1.067,0,1,0-2.133,0v3.2H31.627a5.824,5.824,0,0,0-6.72,0h-4.64V24.933H22.4a3.2,3.2,0,0,0,3.2-3.2V20.667h32A1.067,1.067,0,0,1,58.667,21.733ZM33.483,29.2H46.517a5.557,5.557,0,0,0-.651,2.133H34.133A5.557,5.557,0,0,0,33.483,29.2ZM50.837,12.72l2.9,5.813H42.667v-6.4h7.211a1.067,1.067,0,0,1,.96.587Zm-18.475,0a1.067,1.067,0,0,1,.96-.587h7.211v6.4H29.461ZM21.333,20.667h2.133v1.067A1.067,1.067,0,0,1,22.4,22.8H20.267V21.733A1.067,1.067,0,0,1,21.333,20.667Zm-3.2,9.6a1.067,1.067,0,0,1,.331-.757A.992.992,0,0,1,19.2,29.2h3.851a5.557,5.557,0,0,0-.651,2.133H19.2A1.067,1.067,0,0,1,18.133,30.267ZM28.267,35.6A3.733,3.733,0,1,1,32,31.867,3.733,3.733,0,0,1,28.267,35.6Zm23.467,0a3.733,3.733,0,1,1,3.733-3.733A3.733,3.733,0,0,1,51.733,35.6Zm8.736-4.576a.992.992,0,0,1-.736.309H57.6a5.557,5.557,0,0,0-.619-2.133h2.752a1.056,1.056,0,0,1,.736,1.824Z" transform="translate(1.067 0.667)"/>
    <path id="Shape-2" data-name="Shape" class="cls-2" d="M33.067,24.133H35.2A1.067,1.067,0,0,0,35.2,22H33.067a1.067,1.067,0,0,0,0,2.133Z" transform="translate(2.133 1.467)"/>
    <path id="Shape-3" data-name="Shape" class="cls-2" d="M44.067,24.133H46.2A1.067,1.067,0,0,0,46.2,22H44.067a1.067,1.067,0,0,0,0,2.133Z" transform="translate(2.867 1.467)"/>
    <path id="Shape-4" data-name="Shape" class="cls-1" d="M58.741,40.125,39,46.707a3.2,3.2,0,0,1-1.067.16h-.6a4.917,4.917,0,0,0-.395-4.2l-.1-.16a6.4,6.4,0,0,0-5.451-3.1H25.813a8.7,8.7,0,0,1-5.419-1.9,10.816,10.816,0,0,0-6.741-2.368H11.52A3.2,3.2,0,0,0,8.533,33H3.2A3.2,3.2,0,0,0,0,36.2V58.6a3.2,3.2,0,0,0,3.2,3.2H8.533A3.2,3.2,0,0,0,10.9,60.733H37.653a8.448,8.448,0,0,0,4.437-1.248L62.08,47.315a3.988,3.988,0,0,0-3.339-7.189ZM8.533,59.667H3.2A1.067,1.067,0,0,1,2.133,58.6V36.2A1.067,1.067,0,0,1,3.2,35.133H8.533A1.067,1.067,0,0,1,9.6,36.2V58.6A1.067,1.067,0,0,1,8.533,59.667Zm53.333-15.4A1.845,1.845,0,0,1,61,45.5L40.981,57.672a6.4,6.4,0,0,1-3.328.928H11.733V37.267h1.92a8.7,8.7,0,0,1,5.419,1.9,10.816,10.816,0,0,0,6.741,2.368h5.579A4.267,4.267,0,0,1,35.051,43.6l.1.16a2.784,2.784,0,0,1-.16,3.1H28.512a10.667,10.667,0,0,0-5.92,1.792l-.779.523a1.067,1.067,0,0,0,1.173,1.771l.789-.523A8.533,8.533,0,0,1,28.512,49h9.472a5.333,5.333,0,0,0,1.685-.277l19.755-6.581a1.856,1.856,0,0,1,2.069.661,1.824,1.824,0,0,1,.373,1.461Z" transform="translate(0 2.2)"/>
    <path id="Shape-5" data-name="Shape" class="cls-2" d="M15.733,14.709V11.936a6.4,6.4,0,0,0,3.2-5.536V3.2a3.2,3.2,0,0,0-3.2-3.2H7.2A3.2,3.2,0,0,0,4,3.2V6.4a6.4,6.4,0,0,0,3.2,5.536V25.952a2.133,2.133,0,0,0,.427,1.28L9.76,30.08a2.133,2.133,0,0,0,3.413,0l2.133-2.848a2.133,2.133,0,0,0,.427-1.28V23.691a1.6,1.6,0,0,0-.469-1.131l-1.227-1.227,1-1a1.589,1.589,0,0,0,0-2.261l-1-1,1.227-1.227a1.6,1.6,0,0,0,.469-1.131ZM6.133,3.2A1.067,1.067,0,0,1,7.2,2.133h8.533A1.067,1.067,0,0,1,16.8,3.2V6.4a4.267,4.267,0,0,1-4.267,4.267H10.4A4.267,4.267,0,0,1,6.133,6.4Zm6.027,15,1,1-1,1a1.589,1.589,0,0,0,0,2.261L13.6,23.9v2.048L11.467,28.8,9.333,25.952V12.7a7.083,7.083,0,0,0,1.067.1h2.133a7.083,7.083,0,0,0,1.067-.1V14.5l-1.44,1.44a1.589,1.589,0,0,0,0,2.261Z" transform="translate(0.267 0)"/>
    <path id="Shape-6" data-name="Shape" class="cls-2" d="M10.067,6.133H12.2A1.067,1.067,0,0,0,12.2,4H10.067a1.067,1.067,0,1,0,0,2.133Z" transform="translate(0.6 0.267)"/>
  </g>
</svg>
