<svg xmlns="http://www.w3.org/2000/svg" width="64" height="44.845" viewBox="0 0 64 44.845">
  <defs>
    <style>
      .cls-1 {
        fill: #2a2a2a;
      }

      .cls-2 {
        fill: #008736;
      }
    </style>
  </defs>
  <g id="shipping" transform="translate(0 -76.8)">
    <g id="Page-1" transform="translate(0 76.8)">
      <g id="_x30_28---Car-Transporter" transform="translate(0 0)">
        <path id="Shape" class="cls-1" d="M60.174,95.979a2.258,2.258,0,0,1-.6-1.175l-1.7-11.015A3.2,3.2,0,0,0,54.7,81.063h-.538l-.65-2.651A2.129,2.129,0,0,0,51.435,76.8h-2.6a2.14,2.14,0,0,0-2.075,1.613L46.1,81.063h-.238a3.207,3.207,0,0,0-3.2,3.2V104.53H3.2A3.218,3.218,0,0,0,0,107.744v2.138a3.207,3.207,0,0,0,3.2,3.2H6.776a6.4,6.4,0,1,0,12.052,0H47.309a6.4,6.4,0,1,0,12.052,0H60.8a3.207,3.207,0,0,0,3.2-3.2v-8.714a3.227,3.227,0,0,0-.938-2.275ZM55.761,84.114l1.663,10.827H50.135a1.062,1.062,0,0,1-1.063-1.063V83.2h5.639A1.063,1.063,0,0,1,55.761,84.114Zm-6.914-5.176h2.6l.538,2.138H48.322ZM12.8,119.471a4.263,4.263,0,1,1,4.263-4.263A4.261,4.261,0,0,1,12.8,119.471Zm0-10.665a6.382,6.382,0,0,0-4.763,2.138H3.2a1.062,1.062,0,0,1-1.063-1.063v-2.138A1.062,1.062,0,0,1,3.2,106.681h39.47v4.263h-25.1A6.382,6.382,0,0,0,12.8,108.806Zm40.545,10.665a4.263,4.263,0,1,1,4.263-4.263A4.261,4.261,0,0,1,53.348,119.471Zm7.464-8.527H58.1a6.376,6.376,0,0,0-9.527,0H44.8V84.264A1.062,1.062,0,0,1,45.859,83.2h1.063V93.866a3.207,3.207,0,0,0,3.2,3.2h8.152c.113.15.238.288.363.425l2.9,2.9a1.09,1.09,0,0,1,.325.763v.175H59.724a1.063,1.063,0,1,0,0,2.125h2.138v6.4a1.057,1.057,0,0,1-1.05,1.088Z" transform="translate(0 -76.8)"/>
        <circle id="Oval" class="cls-1" cx="1.063" cy="1.063" r="1.063" transform="translate(11.74 37.345)"/>
        <circle id="Oval_1_" class="cls-1" cx="1.063" cy="1.063" r="1.063" transform="translate(52.285 37.345)"/>
      </g>
    </g>
    <g id="Page-1_1_" transform="translate(7.039 81.226)">
      <g id="_x30_28---Car-Transporter_1_" transform="translate(0 0)">
        <path id="Shape_1_" class="cls-2" d="M79.8,134.679a4.533,4.533,0,0,0,4.526-4.426,2.711,2.711,0,0,0,2.713-2.713v-3.213a2.726,2.726,0,0,0-1.863-2.576l-3.438-1.138a.462.462,0,0,1-.175-.088.262.262,0,0,0-.075-.05.8.8,0,0,1-.275-.338L78.4,113.813a2.713,2.713,0,0,0-2.488-1.613H63.026a2.726,2.726,0,0,0-2.576,1.863l-2.1,6.289a1.881,1.881,0,0,1-.2.425,1.627,1.627,0,0,1-.225.288l-.825.825a2.715,2.715,0,0,0-.8,1.925v3.776a2.711,2.711,0,0,0,2.713,2.713c0,.988,1.013,4.426,4.526,4.426,3.551,0,4.513-3.451,4.526-4.426H75.3A4.44,4.44,0,0,0,79.8,134.679Zm-2.713-4.426a2.713,2.713,0,1,1,2.713,2.713,2.711,2.711,0,0,1-2.713-2.713Zm-.35-15.741,2.576,5.789H70.765v-6.326h5.151A.892.892,0,0,1,76.741,114.513Zm-14.578.1a.941.941,0,0,1,.863-.638h5.926V120.3H60.263ZM59,128.441a.9.9,0,0,1-.9-.9v-3.776a.93.93,0,0,1,.275-.65l.825-.825c.063-.063.113-.125.175-.188H80.73a3.1,3.1,0,0,0,.463.213l3.426,1.138a.953.953,0,0,1,.525.463h-.8a.9.9,0,1,0,0,1.8h.9v1.813a.9.9,0,0,1-.9.9h-.388a4.513,4.513,0,0,0-8.277,0H70.765v-3.613a.9.9,0,0,0-1.8,0v3.613H67.677a4.513,4.513,0,0,0-8.277,0H59Zm1.813,1.813a2.713,2.713,0,1,1,2.713,2.713A2.711,2.711,0,0,1,60.813,130.254Z" transform="translate(-56.3 -112.2)"/>
      </g>
    </g>
  </g>
</svg>
