<svg id="timetable" xmlns="http://www.w3.org/2000/svg" width="60" height="60" viewBox="0 0 60 60">
  <defs>
    <style>
      .cls-1 {
        fill: #008736;
      }
    </style>
  </defs>
  <path id="Path_87" data-name="Path 87" d="M56.484,34.248V5.391a1.758,1.758,0,0,0-1.758-1.758H45.82V1.758a1.758,1.758,0,0,0-3.516,0V3.633H35.273V1.758a1.758,1.758,0,0,0-3.516,0V3.633H24.727V1.758a1.758,1.758,0,0,0-3.516,0V3.633H14.18V1.758a1.758,1.758,0,0,0-3.516,0V3.633H1.758A1.758,1.758,0,0,0,0,5.391v45.82a1.758,1.758,0,0,0,1.758,1.758H31.032A15.814,15.814,0,1,0,56.484,34.248Zm-45.82-27.1V8.906a1.758,1.758,0,0,0,3.516,0V7.148h7.031V8.906a1.758,1.758,0,0,0,3.516,0V7.148h7.031V8.906a1.758,1.758,0,0,0,3.516,0V7.148H42.3V8.906a1.758,1.758,0,0,0,3.516,0V7.148h7.148V14.18H3.516V7.148Zm-7.148,42.3V17.7H52.969V31.032A15.8,15.8,0,0,0,30.907,35.58a1.747,1.747,0,0,0-.79-.189H26.6a1.758,1.758,0,0,0,0,3.516h2.663a15.689,15.689,0,0,0-.807,3.516H26.6a1.758,1.758,0,0,0,0,3.516h1.856a15.664,15.664,0,0,0,.807,3.516ZM44.18,56.484a12.3,12.3,0,1,1,12.3-12.3A12.318,12.318,0,0,1,44.18,56.484Zm0,0"/>
  <path id="Path_98" data-name="Path 98" class="cls-1" d="M44.18,28.39c-12.048,0-15.843,10.065-15.843,15.789C28.337,55.538,37.623,60,44.18,60A15.838,15.838,0,0,0,60,44.18C60,39.133,57.015,28.39,44.18,28.39Zm0,28.094a12.3,12.3,0,1,1,12.3-12.3A12.318,12.318,0,0,1,44.18,56.484Zm0,0"/>
  <path id="Path_88" data-name="Path 88" class="cls-1" d="M370.789,309.031h-5.273v-5.273a1.758,1.758,0,0,0-3.516,0v7.031a1.758,1.758,0,0,0,1.758,1.758h7.031a1.758,1.758,0,0,0,0-3.516Zm0,0" transform="translate(-319.578 -266.609)"/>
  <path id="Path_89" data-name="Path 89" d="M96.273,182H92.758a1.758,1.758,0,0,0,0,3.516h3.516a1.758,1.758,0,0,0,0-3.516Zm0,0" transform="translate(-80.336 -160.672)"/>
  <path id="Path_90" data-name="Path 90" d="M96.273,242H92.758a1.758,1.758,0,0,0,0,3.516h3.516a1.758,1.758,0,0,0,0-3.516Zm0,0" transform="translate(-80.336 -213.641)"/>
  <path id="Path_91" data-name="Path 91" d="M96.273,302H92.758a1.758,1.758,0,0,0,0,3.516h3.516a1.758,1.758,0,0,0,0-3.516Zm0,0" transform="translate(-80.336 -266.609)"/>
  <path id="Path_92" data-name="Path 92" d="M213.758,185.516h3.516a1.758,1.758,0,0,0,0-3.516h-3.516a1.758,1.758,0,0,0,0,3.516Zm0,0" transform="translate(-187.156 -160.672)"/>
  <path id="Path_93" data-name="Path 93" d="M213.758,245.516h3.516a1.758,1.758,0,0,0,0-3.516h-3.516a1.758,1.758,0,0,0,0,3.516Zm0,0" transform="translate(-187.156 -213.641)"/>
  <path id="Path_94" data-name="Path 94" d="M96.273,362H92.758a1.758,1.758,0,0,0,0,3.516h3.516a1.758,1.758,0,0,0,0-3.516Zm0,0" transform="translate(-80.336 -319.578)"/>
  <path id="Path_95" data-name="Path 95" d="M333.758,185.516h3.516a1.758,1.758,0,0,0,0-3.516h-3.516a1.758,1.758,0,0,0,0,3.516Zm0,0" transform="translate(-293.094 -160.672)"/>
</svg>
