<svg xmlns="http://www.w3.org/2000/svg" width="64" height="38.398" viewBox="0 0 64 38.398"><defs><style>.a{fill:#2a2a2a;}.b{fill:#008736;}</style></defs><g transform="translate(0 0)"><path class="a" d="M44.8,0A19.048,19.048,0,0,0,32.015,4.906,19.2,19.2,0,1,0,19.2,38.4a19.06,19.06,0,0,0,12.816-4.906A19.189,19.189,0,1,0,44.8,0Zm0,36.265a16.93,16.93,0,0,1-11.275-4.281,19.745,19.745,0,0,0,2.144-2.9,1.067,1.067,0,0,0-1.824-1.105,17.493,17.493,0,0,1-2.6,3.306,17.105,17.105,0,0,1-2.6,2.133l-.521-.9a1.067,1.067,0,1,0-1.847,1.067l.521.9a16.978,16.978,0,0,1-6.536,1.747V35.2a1.067,1.067,0,1,0-2.133,0V36.21a16.929,16.929,0,0,1-6.516-1.745l.507-.878a1.067,1.067,0,0,0-1.847-1.067l-.512.886a17.233,17.233,0,0,1-4.773-4.773l.886-.512A1.067,1.067,0,1,0,4.81,26.275l-.878.507a16.929,16.929,0,0,1-1.745-6.516H3.2a1.067,1.067,0,1,0,0-2.133H2.188a16.929,16.929,0,0,1,1.745-6.516l.878.507a1.067,1.067,0,1,0,1.067-1.847l-.886-.512A17.233,17.233,0,0,1,9.764,4.991l.512.886A1.067,1.067,0,0,0,12.123,4.81l-.507-.878a16.929,16.929,0,0,1,6.516-1.745V3.2a1.067,1.067,0,1,0,2.133,0V2.167A16.978,16.978,0,0,1,26.8,3.908l-.521.9a1.067,1.067,0,1,0,1.847,1.067l.521-.9a17.105,17.105,0,0,1,2.6,2.133,17.492,17.492,0,0,1,2.6,3.306A1.067,1.067,0,1,0,35.66,9.309a19.746,19.746,0,0,0-2.144-2.9A17.057,17.057,0,1,1,44.8,36.265Z" transform="translate(0 0)"/><path class="b" d="M47.666,14.288a1.067,1.067,0,0,0,2.133,0c0-2.725-2.311-4.989-5.333-5.428V8.067a1.067,1.067,0,0,0-2.133,0V8.86C39.311,9.3,37,11.563,37,14.288s2.311,4.989,5.333,5.428v6.72a3.626,3.626,0,0,1-3.2-3.257,1.067,1.067,0,1,0-2.133,0c0,2.725,2.311,4.989,5.333,5.428V29.4a1.067,1.067,0,0,0,2.133,0v-.794c3.022-.439,5.333-2.7,5.333-5.428s-2.311-4.989-5.333-5.428V11.03a3.626,3.626,0,0,1,3.2,3.258Zm-8.533,0a3.626,3.626,0,0,1,3.2-3.257v6.516A3.626,3.626,0,0,1,39.133,14.288Zm8.533,8.889a3.626,3.626,0,0,1-3.2,3.257V19.919A3.626,3.626,0,0,1,47.666,23.177Z" transform="translate(2.464 0.466)"/><path class="a" d="M37.462,17.138,29.853,9.594a2.069,2.069,0,0,0-3.52,1.464v3.274h-3.2A2.133,2.133,0,0,0,21,16.466v4.266a2.133,2.133,0,0,0,2.133,2.133h3.2V26.14a2.069,2.069,0,0,0,3.52,1.461l7.619-7.555a2.069,2.069,0,0,0-.01-2.909Zm-9,8.839V21.8A1.067,1.067,0,0,0,27.4,20.733H23.133V16.466H27.4A1.067,1.067,0,0,0,28.466,15.4V11.221l7.494,7.325Z" transform="translate(1.399 0.6)"/><path class="b" d="M18.468,7A1.067,1.067,0,0,0,17.4,8.067V18.338L11.259,25.5a1.067,1.067,0,1,0,1.619,1.387l6.4-7.466a1.067,1.067,0,0,0,.257-.692V8.067A1.067,1.067,0,0,0,18.468,7Z" transform="translate(0.731 0.466)"/></g></svg>