<?xml version="1.0" encoding="utf-8"?>
<!-- Generator: Adobe Illustrator 24.0.0, SVG Export Plug-In . SVG Version: 6.00 Build 0)  -->
<svg version="1.1" id="Слой_1" xmlns="http://www.w3.org/2000/svg" xmlns:xlink="http://www.w3.org/1999/xlink" x="0px" y="0px"
	 viewBox="0 0 60 135" style="enable-background:new 0 0 60 135;" xml:space="preserve">
<style type="text/css">
	.st0{enable-background:new    ;}
	.st1{fill:#008736;}
</style>
<g class="st0">
	<g>
		<path class="st1" d="M30.2,108H13.5V89.2h16.7V108z M15.5,106h12.7V91.2H15.5V106z M29.8,80.6H13.2v-1c0-2.5,0.2-4.7,0.7-6.6
			c0.4-2.1,1.4-4.1,2.8-6c1.4-1.9,3.4-3.6,6.1-5.1c1.2-0.7,2.5-1.4,4-2c1.7-0.9,3.2-1.7,4.6-2.7c1.5-1,2.7-2.2,3.8-3.7
			c1-1.3,1.4-2.7,1.4-4.3c0-1.4-0.4-2.6-1.1-3.6c-0.8-1-1.6-1.7-2.9-2.4c-1.1-0.5-2.4-0.8-3.8-0.8c-1.8,0-3.3,0.4-4.6,1.2
			c-1.3,0.8-2.5,1.8-3.3,2.9c-0.7,0.9-1.4,1.8-2,2.6c-0.2,0.3-0.4,0.6-0.6,0.9l-0.6,0.8l-13.2-9L4.9,41c1.4-3.2,3.3-6,5.6-8.2
			c2.7-2.4,5.5-4,8.5-5.1c3-1.2,6.4-1.8,10.2-1.8c2.9,0,5.8,0.4,8.7,1.2c3,0.8,5.7,2.2,8,4.1c2.5,2,4.5,4.4,5.8,7.3
			c1.5,3.1,2.2,6.5,2.2,10.6c0,2.2-0.2,4.3-0.6,6c-0.4,1.7-1.1,3.4-2.1,5.1c-1.1,1.7-2.3,3.1-3.6,4.2c-1.4,1.3-3,2.5-4.6,3.6
			c-2.1,1.3-4.3,2.5-6.4,3.6c-1.9,1-3.5,2.1-5.1,3.5c-1.2,1.1-1.8,2.5-1.8,4.3V80.6z M15.2,78.6h12.6c0.2-1.9,1-3.6,2.4-4.8
			c1.7-1.5,3.5-2.7,5.5-3.8c2.1-1.1,4.2-2.3,6.2-3.6c1.5-1,3-2.1,4.3-3.4c1.2-1,2.2-2.3,3.2-3.8c0.9-1.5,1.5-3,1.9-4.5
			c0.4-1.6,0.6-3.5,0.6-5.6c0-3.8-0.7-7-2-9.8c-1.2-2.6-2.9-4.8-5.2-6.5c-2.2-1.7-4.6-3-7.4-3.7C34.7,28.4,32,28,29.3,28
			c-3.6,0-6.7,0.5-9.5,1.6c-2.8,1-5.4,2.6-7.9,4.7c-2,1.8-3.6,4.1-4.8,6.7l10.2,7c0,0,0-0.1,0.1-0.1c0.6-0.9,1.3-1.8,2-2.7
			c1-1.3,2.3-2.5,3.9-3.4c1.6-1,3.5-1.4,5.6-1.4c1.7,0,3.3,0.3,4.7,1c1.6,0.8,2.6,1.8,3.6,3c1,1.3,1.5,2.9,1.5,4.8
			c0,2-0.6,3.8-1.8,5.5c-1.2,1.7-2.6,3-4.2,4.1c-1.5,1-3.1,2-4.9,2.9c-1.4,0.6-2.7,1.3-3.8,2c-2.5,1.3-4.3,2.8-5.5,4.5
			c-1.3,1.6-2.1,3.4-2.4,5.2C15.5,75,15.3,76.7,15.2,78.6z"/>
	</g>
</g>
</svg>
