<svg xmlns="http://www.w3.org/2000/svg" width="60" height="41.943" viewBox="0 0 60 41.943"><defs><style>.a{fill:#008736;}</style></defs><g transform="translate(0 -75.6)"><path d="M59.833,98.434c-.311-1.469-1.9-2.651-4.777-3.523a33.662,33.662,0,0,0-8.79-1.23L45.943,80.09c-.442-1.338-2.03-2.424-4.717-3.236A35.467,35.467,0,0,0,31.35,75.6a34.516,34.516,0,0,0-9.781,1.254c-2.162.669-4.753,1.911-4.753,4.049a2.2,2.2,0,0,0,.036.394l.131,5.446A14.3,14.3,0,1,0,23.3,111.882a35.662,35.662,0,0,0,7.679.836c.609,3.308,7.787,4.825,14.475,4.825a34.694,34.694,0,0,0,9.793-1.266c2.186-.669,4.753-1.923,4.753-4.061Zm-37.6-19.287a32.349,32.349,0,0,1,9.088-1.158,33.467,33.467,0,0,1,9.2,1.158c2.6.788,3.165,1.6,3.165,1.768s-.561.979-3.165,1.768a33.776,33.776,0,0,1-9.184,1.158,32.791,32.791,0,0,1-8.8-1.075c-2.568-.74-3.3-1.564-3.356-1.827,0-.012-.012-.024-.024-.036C19.156,80.652,19.956,79.852,22.237,79.147Zm21.64,4.717V86.85a1.21,1.21,0,0,0-.191.669c0,.155-.561.979-3.153,1.768a33.314,33.314,0,0,1-9.184,1.158,34.168,34.168,0,0,1-8.133-.9c-.036-.012-.072-.012-.1-.024a13.713,13.713,0,0,0-3.726-2.114l-.084-3.368a13.232,13.232,0,0,0,2.58.991,35.3,35.3,0,0,0,9.471,1.158,35.317,35.317,0,0,0,9.865-1.254A11.766,11.766,0,0,0,43.877,83.864ZM22.3,109.589A11.9,11.9,0,1,1,14.283,88.88a12.163,12.163,0,0,1,3.523.525,11.626,11.626,0,0,1,4.228,2.353,11.888,11.888,0,0,1,3.917,6.628,12.49,12.49,0,0,1,.239,2.4A11.814,11.814,0,0,1,22.3,109.589Zm3.033.263a14.42,14.42,0,0,0,2.293-3.929c1.027.084,2.1.143,3.213.155a1.228,1.228,0,0,0,0,.418l.048,3.846A36.337,36.337,0,0,1,25.33,109.852Zm3.189-10.486c.7.048,1.433.072,2.186.084a1.909,1.909,0,0,0,.06.251l.048,3.977c-.86-.012-1.708-.048-2.508-.107a14.681,14.681,0,0,0,.275-2.795C28.579,100.309,28.555,99.844,28.519,99.366Zm2.914-2.293h-.1c-1.158,0-2.257-.048-3.284-.131A14.383,14.383,0,0,0,25.928,92.5a43.157,43.157,0,0,0,5.41.346A35.317,35.317,0,0,0,41.2,91.591a12.641,12.641,0,0,0,2.663-1.1v3.189a33.831,33.831,0,0,0-8.025,1.1A9.31,9.31,0,0,0,31.433,97.073Zm1.648,1.779c.2-.37,1.1-1.1,3.428-1.744A33.077,33.077,0,0,1,45.1,96.094h.1a33.318,33.318,0,0,1,9.184,1.135c2.508.764,3.117,1.529,3.153,1.732v.012c-.012.179-.6,1-3.248,1.791a33.267,33.267,0,0,1-9.088,1.123,34.126,34.126,0,0,1-8.551-.991c-2.245-.609-3.213-1.314-3.5-1.72A1.024,1.024,0,0,0,33.081,98.852ZM57.611,112.2c0,.167-.525.991-3.069,1.779a32.092,32.092,0,0,1-9.1,1.17,32.559,32.559,0,0,1-9.064-1.135c-2.281-.7-3.045-1.493-3.045-1.756v-.024l-.012-.729-.036-2.7a14.755,14.755,0,0,0,2.974,1.075,36.553,36.553,0,0,0,8.933,1.015,35.05,35.05,0,0,0,9.829-1.254,10.689,10.689,0,0,0,2.592-1.087V112.2Zm-.155-6.616c0,.167-.549.979-3.117,1.768a32.982,32.982,0,0,1-9.16,1.146c-6.5,0-10.916-1.445-11.943-2.592l-.048-3.774c2.818,1.469,7.56,2.138,12,2.138a35.656,35.656,0,0,0,9.745-1.218,13.061,13.061,0,0,0,2.687-1.087v2.986h0C57.611,105.134,57.456,105.349,57.456,105.588Z" transform="translate(0 0)"/><path class="a" d="M14.3,86.492a14.3,14.3,0,0,0-.012,28.591c3.284,0,14.3-2.428,14.3-14.3C28.58,91.287,20.7,86.492,14.3,86.492Zm8,23.1A11.9,11.9,0,1,1,14.283,88.88a12.163,12.163,0,0,1,3.523.525,11.626,11.626,0,0,1,4.228,2.353,11.888,11.888,0,0,1,3.917,6.628,12.49,12.49,0,0,1,.239,2.4A11.814,11.814,0,0,1,22.3,109.589Z" transform="translate(0 0)"/><g transform="translate(6.413 92.893)"><path class="a" d="M61.582,220.4a7.882,7.882,0,1,0,7.882,7.882A7.882,7.882,0,0,0,61.582,220.4Zm0,13.388a5.494,5.494,0,1,1,5.494-5.494A5.494,5.494,0,0,1,61.582,233.788Z" transform="translate(-53.7 -220.4)"/></g></g></svg>