<svg xmlns="http://www.w3.org/2000/svg" width="60" height="48" viewBox="0 0 60 48"><defs><style>.a{fill:#008736;}</style></defs><g transform="translate(1 -50.2)"><path d="M86.333,383a2,2,0,1,0,2,2A2.006,2.006,0,0,0,86.333,383Z" transform="translate(-75.333 -293.8)"/><path d="M308.2,383a2,2,0,1,0,2,2A2.006,2.006,0,0,0,308.2,383Z" transform="translate(-271.2 -293.8)"/><path d="M58,78.2H55v-3a1,1,0,1,0-2,0v3H49V54.1a3.821,3.821,0,0,0-3.8-3.9H2.9A3.843,3.843,0,0,0-1,54.1V88.7a3.543,3.543,0,0,0,3.5,3.5H4.071a7,7,0,0,0,13.859,0H30.071a7,7,0,0,0,13.859,0H49v-12h9a1,1,0,0,0,0-2Zm-57-8H15a1,1,0,1,0,0-2H1v-3H11a1,1,0,1,0,0-2H1V54.1a1.839,1.839,0,0,1,1.9-1.9H45.1A1.9,1.9,0,0,1,47,54.1V78.2H1Zm10,26a5,5,0,1,1,5-5A4.951,4.951,0,0,1,11,96.2Zm26,0a5,5,0,1,1,5-5A4.951,4.951,0,0,1,37,96.2Zm10-6H43.929A6.95,6.95,0,0,0,37,84.2h-.1a7,7,0,0,0-6.9,6H17.929a6.942,6.942,0,0,0-6.273-5.969l-.072-.005c-.082-.007-.164-.013-.246-.017-.112-.005-.225-.008-.338-.008s-.226,0-.338.008c-.083,0-.165.011-.246.017l-.072.005A6.942,6.942,0,0,0,4.071,90.2H2.5A1.538,1.538,0,0,1,1,88.7V80.2H47Z"/><path class="a" d="M58,78.2H55v-3a1,1,0,1,0-2,0v3H49V54.1a3.821,3.821,0,0,0-3.8-3.9H2.9A3.843,3.843,0,0,0-1,54.1V80.2H58a1,1,0,0,0,0-2Zm-57-8H15a1,1,0,1,0,0-2H1v-3H11a1,1,0,1,0,0-2H1V54.1a1.839,1.839,0,0,1,1.9-1.9H45.1A1.9,1.9,0,0,1,47,54.1V78.2H1Z"/></g></svg>